<?xml version="1.0" encoding="UTF-8" standalone="no"?>
<!-- Created with Inkscape (http://www.inkscape.org/) -->

<svg
   xmlns:dc="http://purl.org/dc/elements/1.1/"
   xmlns:cc="http://creativecommons.org/ns#"
   xmlns:rdf="http://www.w3.org/1999/02/22-rdf-syntax-ns#"
   xmlns:svg="http://www.w3.org/2000/svg"
   xmlns="http://www.w3.org/2000/svg"
   xmlns:sodipodi="http://sodipodi.sourceforge.net/DTD/sodipodi-0.dtd"
   xmlns:inkscape="http://www.inkscape.org/namespaces/inkscape"
   width="744.09448819"
   height="1052.3622047"
   id="svg2"
   version="1.1"
   inkscape:version="0.48.4 r9939"
   sodipodi:docname="flipdisc_spritesheet_20px.svg">
  <defs
     id="defs4" />
  <sodipodi:namedview
     id="base"
     pagecolor="#ffffff"
     bordercolor="#666666"
     borderopacity="1.0"
     inkscape:pageopacity="0.0"
     inkscape:pageshadow="2"
     inkscape:zoom="1.979899"
     inkscape:cx="261.93489"
     inkscape:cy="573.39195"
     inkscape:document-units="px"
     inkscape:current-layer="layer1"
     showgrid="false"
     inkscape:object-paths="true"
     inkscape:window-width="639"
     inkscape:window-height="383"
     inkscape:window-x="681"
     inkscape:window-y="41"
     inkscape:window-maximized="0"
     inkscape:snap-global="false">
    <inkscape:grid
       type="xygrid"
       id="grid3137" />
  </sodipodi:namedview>
  <metadata
     id="metadata7">
    <rdf:RDF>
      <cc:Work
         rdf:about="">
        <dc:format>image/svg+xml</dc:format>
        <dc:type
           rdf:resource="http://purl.org/dc/dcmitype/StillImage" />
        <dc:title></dc:title>
      </cc:Work>
    </rdf:RDF>
  </metadata>
  <g
     inkscape:label="Layer 1"
     inkscape:groupmode="layer"
     id="layer1">
    <g
       transform="translate(-13.571428,98.989847)"
       id="g3231">
      <rect
         style="fill:#000000;fill-opacity:1;stroke:#000000;stroke-width:1;stroke-miterlimit:4;stroke-opacity:1;stroke-dasharray:none"
         id="rect3233"
         width="20"
         height="20"
         x="68.56263"
         y="561.69855" />
      <path
         inkscape:connector-curvature="0"
         style="fill:#ffff00;fill-opacity:1;stroke:none"
         d="m 78.5625,562.6875 c -1.937008,0 -3.719103,0.64642 -5.1875,1.6875 0.01047,0.01 0.021,0.021 0.03125,0.0313 0.585786,0.58579 0.585788,1.53921 0,2.125 -0.585782,0.58578 -1.539214,0.58579 -2.125,0 -0.01944,-0.0194 -0.04435,-0.0423 -0.0625,-0.0625 -1.048275,1.47148 -1.65625,3.27441 -1.65625,5.21875 0,4.97057 4.029437,9 9,9 1.944339,0 3.747273,-0.60798 5.21875,-1.65625 -0.01146,-0.0108 -0.02005,-0.02 -0.03125,-0.0313 -0.585786,-0.58579 -0.585788,-1.53921 0,-2.125 0.585782,-0.58578 1.507964,-0.58579 2.09375,0 0.01046,0.0105 0.02116,0.0206 0.03125,0.0313 1.055001,-1.47433 1.6875,-3.26758 1.6875,-5.21875 0,-4.97057 -4.029437,-9 -9,-9 z"
         id="path3235" />
    </g>
    <g
       transform="translate(7.4285715,98.989847)"
       id="g3237">
      <rect
         y="561.69855"
         x="68.56263"
         height="20"
         width="20"
         id="rect3239"
         style="fill:#000000;fill-opacity:1;stroke:#000000;stroke-width:1;stroke-miterlimit:4;stroke-opacity:1;stroke-dasharray:none" />
      <path
         inkscape:connector-curvature="0"
         id="path3241"
         d="m 78.5625,562.6875 c -1.937008,0 -3.719103,0.64642 -5.1875,1.6875 0.01047,0.01 0.021,0.021 0.03125,0.0313 0.585786,0.58579 0.585788,1.53921 0,2.125 -0.585782,0.58578 -1.539214,0.58579 -2.125,0 -0.01944,-0.0194 -0.04435,-0.0423 -0.0625,-0.0625 -1.048275,1.47148 -1.65625,3.27441 -1.65625,5.21875 0,4.97057 4.029437,9 9,9 1.944339,0 3.747273,-0.60798 5.21875,-1.65625 -0.01146,-0.0108 -0.02005,-0.02 -0.03125,-0.0313 -0.585786,-0.58579 -0.585788,-1.53921 0,-2.125 0.585782,-0.58578 1.507964,-0.58579 2.09375,0 0.01046,0.0105 0.02116,0.0206 0.03125,0.0313 1.055001,-1.47433 1.6875,-3.26758 1.6875,-5.21875 0,-4.97057 -4.029437,-9 -9,-9 z"
         style="fill:#ffff00;fill-opacity:1;stroke:none" />
    </g>
    <g
       id="g3243"
       transform="translate(28.428572,98.989847)">
      <rect
         style="fill:#000000;fill-opacity:1;stroke:#000000;stroke-width:1;stroke-miterlimit:4;stroke-opacity:1;stroke-dasharray:none"
         id="rect3245"
         width="20"
         height="20"
         x="68.56263"
         y="561.69855" />
      <path
         style="fill:#ffff00;fill-opacity:1;stroke:none"
         d="m 78.5625,562.6875 c -1.937008,0 -3.719103,0.64642 -5.1875,1.6875 0.01047,0.01 0.021,0.021 0.03125,0.0313 0.585786,0.58579 0.585788,1.53921 0,2.125 -0.585782,0.58578 -1.539214,0.58579 -2.125,0 -0.01944,-0.0194 -0.04435,-0.0423 -0.0625,-0.0625 -1.048275,1.47148 -1.65625,3.27441 -1.65625,5.21875 0,4.97057 4.029437,9 9,9 1.944339,0 3.747273,-0.60798 5.21875,-1.65625 -0.01146,-0.0108 -0.02005,-0.02 -0.03125,-0.0313 -0.585786,-0.58579 -0.585788,-1.53921 0,-2.125 0.585782,-0.58578 1.507964,-0.58579 2.09375,0 0.01046,0.0105 0.02116,0.0206 0.03125,0.0313 1.055001,-1.47433 1.6875,-3.26758 1.6875,-5.21875 0,-4.97057 -4.029437,-9 -9,-9 z"
         id="path3247"
         inkscape:connector-curvature="0" />
    </g>
    <g
       transform="translate(49.428572,98.989847)"
       id="g3249">
      <rect
         y="561.69855"
         x="68.56263"
         height="20"
         width="20"
         id="rect3251"
         style="fill:#000000;fill-opacity:1;stroke:#000000;stroke-width:1;stroke-miterlimit:4;stroke-opacity:1;stroke-dasharray:none" />
      <path
         inkscape:connector-curvature="0"
         id="path3253"
         d="m 78.5625,562.6875 c -1.937008,0 -3.719103,0.64642 -5.1875,1.6875 0.01047,0.01 0.021,0.021 0.03125,0.0313 0.585786,0.58579 0.585788,1.53921 0,2.125 -0.585782,0.58578 -1.539214,0.58579 -2.125,0 -0.01944,-0.0194 -0.04435,-0.0423 -0.0625,-0.0625 -1.048275,1.47148 -1.65625,3.27441 -1.65625,5.21875 0,4.97057 4.029437,9 9,9 1.944339,0 3.747273,-0.60798 5.21875,-1.65625 -0.01146,-0.0108 -0.02005,-0.02 -0.03125,-0.0313 -0.585786,-0.58579 -0.585788,-1.53921 0,-2.125 0.585782,-0.58578 1.507964,-0.58579 2.09375,0 0.01046,0.0105 0.02116,0.0206 0.03125,0.0313 1.055001,-1.47433 1.6875,-3.26758 1.6875,-5.21875 0,-4.97057 -4.029437,-9 -9,-9 z"
         style="fill:#ffff00;fill-opacity:1;stroke:none" />
    </g>
    <g
       id="g3255"
       transform="translate(70.428572,98.989847)">
      <rect
         style="fill:#000000;fill-opacity:1;stroke:#000000;stroke-width:1;stroke-miterlimit:4;stroke-opacity:1;stroke-dasharray:none"
         id="rect3257"
         width="20"
         height="20"
         x="68.56263"
         y="561.69855" />
      <path
         style="fill:#ffff00;fill-opacity:1;stroke:none"
         d="m 78.5625,562.6875 c -1.937008,0 -3.719103,0.64642 -5.1875,1.6875 0.01047,0.01 0.021,0.021 0.03125,0.0313 0.585786,0.58579 0.585788,1.53921 0,2.125 -0.585782,0.58578 -1.539214,0.58579 -2.125,0 -0.01944,-0.0194 -0.04435,-0.0423 -0.0625,-0.0625 -1.048275,1.47148 -1.65625,3.27441 -1.65625,5.21875 0,4.97057 4.029437,9 9,9 1.944339,0 3.747273,-0.60798 5.21875,-1.65625 -0.01146,-0.0108 -0.02005,-0.02 -0.03125,-0.0313 -0.585786,-0.58579 -0.585788,-1.53921 0,-2.125 0.585782,-0.58578 1.507964,-0.58579 2.09375,0 0.01046,0.0105 0.02116,0.0206 0.03125,0.0313 1.055001,-1.47433 1.6875,-3.26758 1.6875,-5.21875 0,-4.97057 -4.029437,-9 -9,-9 z"
         id="path3259"
         inkscape:connector-curvature="0" />
    </g>
    <g
       transform="translate(91.428572,98.989847)"
       id="g3261">
      <rect
         y="561.69855"
         x="68.56263"
         height="20"
         width="20"
         id="rect3263"
         style="fill:#000000;fill-opacity:1;stroke:#000000;stroke-width:1;stroke-miterlimit:4;stroke-opacity:1;stroke-dasharray:none" />
      <path
         inkscape:connector-curvature="0"
         id="path3265"
         d="m 78.5625,562.6875 c -1.937008,0 -3.719103,0.64642 -5.1875,1.6875 0.01047,0.01 0.021,0.021 0.03125,0.0313 0.585786,0.58579 0.585788,1.53921 0,2.125 -0.585782,0.58578 -1.539214,0.58579 -2.125,0 -0.01944,-0.0194 -0.04435,-0.0423 -0.0625,-0.0625 -1.048275,1.47148 -1.65625,3.27441 -1.65625,5.21875 0,4.97057 4.029437,9 9,9 1.944339,0 3.747273,-0.60798 5.21875,-1.65625 -0.01146,-0.0108 -0.02005,-0.02 -0.03125,-0.0313 -0.585786,-0.58579 -0.585788,-1.53921 0,-2.125 0.585782,-0.58578 1.507964,-0.58579 2.09375,0 0.01046,0.0105 0.02116,0.0206 0.03125,0.0313 1.055001,-1.47433 1.6875,-3.26758 1.6875,-5.21875 0,-4.97057 -4.029437,-9 -9,-9 z"
         style="fill:#ffff00;fill-opacity:1;stroke:none" />
    </g>
    <g
       id="g3267"
       transform="translate(112.42857,98.989847)">
      <rect
         style="fill:#000000;fill-opacity:1;stroke:#000000;stroke-width:1;stroke-miterlimit:4;stroke-opacity:1;stroke-dasharray:none"
         id="rect3269"
         width="20"
         height="20"
         x="68.56263"
         y="561.69855" />
      <path
         style="fill:#ffff00;fill-opacity:1;stroke:none"
         d="m 78.5625,562.6875 c -1.937008,0 -3.719103,0.64642 -5.1875,1.6875 0.01047,0.01 0.021,0.021 0.03125,0.0313 0.585786,0.58579 0.585788,1.53921 0,2.125 -0.585782,0.58578 -1.539214,0.58579 -2.125,0 -0.01944,-0.0194 -0.04435,-0.0423 -0.0625,-0.0625 -1.048275,1.47148 -1.65625,3.27441 -1.65625,5.21875 0,4.97057 4.029437,9 9,9 1.944339,0 3.747273,-0.60798 5.21875,-1.65625 -0.01146,-0.0108 -0.02005,-0.02 -0.03125,-0.0313 -0.585786,-0.58579 -0.585788,-1.53921 0,-2.125 0.585782,-0.58578 1.507964,-0.58579 2.09375,0 0.01046,0.0105 0.02116,0.0206 0.03125,0.0313 1.055001,-1.47433 1.6875,-3.26758 1.6875,-5.21875 0,-4.97057 -4.029437,-9 -9,-9 z"
         id="path3271"
         inkscape:connector-curvature="0" />
    </g>
    <g
       transform="translate(133.42857,98.989847)"
       id="g3273">
      <rect
         y="561.69855"
         x="68.56263"
         height="20"
         width="20"
         id="rect3275"
         style="fill:#000000;fill-opacity:1;stroke:#000000;stroke-width:1;stroke-miterlimit:4;stroke-opacity:1;stroke-dasharray:none" />
      <path
         inkscape:connector-curvature="0"
         id="path3277"
         d="m 78.5625,562.6875 c -1.937008,0 -3.719103,0.64642 -5.1875,1.6875 0.01047,0.01 0.021,0.021 0.03125,0.0313 0.585786,0.58579 0.585788,1.53921 0,2.125 -0.585782,0.58578 -1.539214,0.58579 -2.125,0 -0.01944,-0.0194 -0.04435,-0.0423 -0.0625,-0.0625 -1.048275,1.47148 -1.65625,3.27441 -1.65625,5.21875 0,4.97057 4.029437,9 9,9 1.944339,0 3.747273,-0.60798 5.21875,-1.65625 -0.01146,-0.0108 -0.02005,-0.02 -0.03125,-0.0313 -0.585786,-0.58579 -0.585788,-1.53921 0,-2.125 0.585782,-0.58578 1.507964,-0.58579 2.09375,0 0.01046,0.0105 0.02116,0.0206 0.03125,0.0313 1.055001,-1.47433 1.6875,-3.26758 1.6875,-5.21875 0,-4.97057 -4.029437,-9 -9,-9 z"
         style="fill:#ffff00;fill-opacity:1;stroke:none" />
    </g>
    <g
       id="g3279"
       transform="translate(154.42857,98.989847)">
      <rect
         style="fill:#000000;fill-opacity:1;stroke:#000000;stroke-width:1;stroke-miterlimit:4;stroke-opacity:1;stroke-dasharray:none"
         id="rect3281"
         width="20"
         height="20"
         x="68.56263"
         y="561.69855" />
      <path
         style="fill:#ffff00;fill-opacity:1;stroke:none"
         d="m 78.5625,562.6875 c -1.937008,0 -3.719103,0.64642 -5.1875,1.6875 0.01047,0.01 0.021,0.021 0.03125,0.0313 0.585786,0.58579 0.585788,1.53921 0,2.125 -0.585782,0.58578 -1.539214,0.58579 -2.125,0 -0.01944,-0.0194 -0.04435,-0.0423 -0.0625,-0.0625 -1.048275,1.47148 -1.65625,3.27441 -1.65625,5.21875 0,4.97057 4.029437,9 9,9 1.944339,0 3.747273,-0.60798 5.21875,-1.65625 -0.01146,-0.0108 -0.02005,-0.02 -0.03125,-0.0313 -0.585786,-0.58579 -0.585788,-1.53921 0,-2.125 0.585782,-0.58578 1.507964,-0.58579 2.09375,0 0.01046,0.0105 0.02116,0.0206 0.03125,0.0313 1.055001,-1.47433 1.6875,-3.26758 1.6875,-5.21875 0,-4.97057 -4.029437,-9 -9,-9 z"
         id="path3283"
         inkscape:connector-curvature="0" />
    </g>
    <g
       transform="translate(175.42857,98.989847)"
       id="g3285">
      <rect
         y="561.69855"
         x="68.56263"
         height="20"
         width="20"
         id="rect3287"
         style="fill:#000000;fill-opacity:1;stroke:#000000;stroke-width:1;stroke-miterlimit:4;stroke-opacity:1;stroke-dasharray:none" />
      <path
         inkscape:connector-curvature="0"
         id="path3289"
         d="m 78.5625,562.6875 c -1.937008,0 -3.719103,0.64642 -5.1875,1.6875 0.01047,0.01 0.021,0.021 0.03125,0.0313 0.585786,0.58579 0.585788,1.53921 0,2.125 -0.585782,0.58578 -1.539214,0.58579 -2.125,0 -0.01944,-0.0194 -0.04435,-0.0423 -0.0625,-0.0625 -1.048275,1.47148 -1.65625,3.27441 -1.65625,5.21875 0,4.97057 4.029437,9 9,9 1.944339,0 3.747273,-0.60798 5.21875,-1.65625 -0.01146,-0.0108 -0.02005,-0.02 -0.03125,-0.0313 -0.585786,-0.58579 -0.585788,-1.53921 0,-2.125 0.585782,-0.58578 1.507964,-0.58579 2.09375,0 0.01046,0.0105 0.02116,0.0206 0.03125,0.0313 1.055001,-1.47433 1.6875,-3.26758 1.6875,-5.21875 0,-4.97057 -4.029437,-9 -9,-9 z"
         style="fill:#ffff00;fill-opacity:1;stroke:none" />
    </g>
    <g
       id="g3291"
       transform="translate(196.42857,98.989847)">
      <rect
         style="fill:#000000;fill-opacity:1;stroke:#000000;stroke-width:1;stroke-miterlimit:4;stroke-opacity:1;stroke-dasharray:none"
         id="rect3293"
         width="20"
         height="20"
         x="68.56263"
         y="561.69855" />
      <path
         style="fill:#ffff00;fill-opacity:1;stroke:none"
         d="m 78.5625,562.6875 c -1.937008,0 -3.719103,0.64642 -5.1875,1.6875 0.01047,0.01 0.021,0.021 0.03125,0.0313 0.585786,0.58579 0.585788,1.53921 0,2.125 -0.585782,0.58578 -1.539214,0.58579 -2.125,0 -0.01944,-0.0194 -0.04435,-0.0423 -0.0625,-0.0625 -1.048275,1.47148 -1.65625,3.27441 -1.65625,5.21875 0,4.97057 4.029437,9 9,9 1.944339,0 3.747273,-0.60798 5.21875,-1.65625 -0.01146,-0.0108 -0.02005,-0.02 -0.03125,-0.0313 -0.585786,-0.58579 -0.585788,-1.53921 0,-2.125 0.585782,-0.58578 1.507964,-0.58579 2.09375,0 0.01046,0.0105 0.02116,0.0206 0.03125,0.0313 1.055001,-1.47433 1.6875,-3.26758 1.6875,-5.21875 0,-4.97057 -4.029437,-9 -9,-9 z"
         id="path3295"
         inkscape:connector-curvature="0" />
    </g>
    <g
       transform="translate(217.42857,98.989847)"
       id="g3297">
      <rect
         y="561.69855"
         x="68.56263"
         height="20"
         width="20"
         id="rect3299"
         style="fill:#000000;fill-opacity:1;stroke:#000000;stroke-width:1;stroke-miterlimit:4;stroke-opacity:1;stroke-dasharray:none" />
      <path
         inkscape:connector-curvature="0"
         id="path3301"
         d="m 78.5625,562.6875 c -1.937008,0 -3.719103,0.64642 -5.1875,1.6875 0.01047,0.01 0.021,0.021 0.03125,0.0313 0.585786,0.58579 0.585788,1.53921 0,2.125 -0.585782,0.58578 -1.539214,0.58579 -2.125,0 -0.01944,-0.0194 -0.04435,-0.0423 -0.0625,-0.0625 -1.048275,1.47148 -1.65625,3.27441 -1.65625,5.21875 0,4.97057 4.029437,9 9,9 1.944339,0 3.747273,-0.60798 5.21875,-1.65625 -0.01146,-0.0108 -0.02005,-0.02 -0.03125,-0.0313 -0.585786,-0.58579 -0.585788,-1.53921 0,-2.125 0.585782,-0.58578 1.507964,-0.58579 2.09375,0 0.01046,0.0105 0.02116,0.0206 0.03125,0.0313 1.055001,-1.47433 1.6875,-3.26758 1.6875,-5.21875 0,-4.97057 -4.029437,-9 -9,-9 z"
         style="fill:#ffff00;fill-opacity:1;stroke:none" />
    </g>
    <g
       id="g3353"
       inkscape:export-filename="/home/jcw/dev/ferranti.png"
       inkscape:export-xdpi="90"
       inkscape:export-ydpi="90">
      <rect
         y="452.09698"
         x="72.09816"
         height="20"
         width="20"
         id="rect3139"
         style="fill:#000000;fill-opacity:1;stroke:#000000;stroke-width:1;stroke-miterlimit:4;stroke-opacity:1;stroke-dasharray:none" />
      <path
         id="path3141"
         d="m 82.098038,453.08595 c -1.937006,0 -3.719099,0.64642 -5.187498,1.6875 0.01049,0.01 0.021,0.021 0.03123,0.0313 0.585782,0.58579 0.585782,1.53921 -7e-6,2.125 -0.585781,0.58578 -1.539209,0.58579 -2.124997,0 -0.01947,-0.0194 -0.04405,-0.0426 -0.06251,-0.0625 -1.048272,1.47148 -1.65625,3.27441 -1.65625,5.21875 0,4.97057 4.029434,9 8.999999,9 1.944339,-10e-6 3.74727,-0.60798 5.218752,-1.65625 -0.01143,-0.0108 -0.02003,-0.02 -0.03123,-0.0313 -0.585788,-0.58579 -0.585788,-1.53921 -7e-6,-2.125 0.585789,-0.58578 1.507969,-0.58579 2.09375,0 0.01045,0.0105 0.02114,0.0206 0.03123,0.0313 1.055004,-1.47433 1.687496,-3.26758 1.687496,-5.21875 0,-4.97058 -4.02944,-9 -8.999998,-9 z"
         style="fill:#ffff00;fill-opacity:1;stroke:none"
         inkscape:connector-curvature="0" />
      <rect
         style="fill:#000000;fill-opacity:1;stroke:#000000;stroke-width:1;stroke-miterlimit:4;stroke-opacity:1;stroke-dasharray:none"
         id="rect3161"
         width="20"
         height="20"
         x="93.09816"
         y="452.09698" />
      <path
         style="fill:#ffff00;fill-opacity:1;stroke:none"
         d="m 102.3276,453.85638 c -1.77236,-0.16464 -3.348031,0.27536 -4.603124,1.10313 0.01045,0.0101 0.021,0.021 0.03124,0.0313 0.585781,0.58579 0.666823,1.45817 0.180616,1.94438 -0.486199,0.4862 -1.358585,0.40517 -1.944374,-0.18062 -0.01946,-0.0194 -0.04393,-0.0428 -0.06251,-0.0625 -0.834089,1.25729 -1.23714,2.8553 -1.071875,4.63438 0.422503,4.54806 4.451937,8.57749 8.999995,8.99999 1.77908,0.16527 3.37709,-0.23778 4.63438,-1.07187 -0.0114,-0.0108 -0.02,-0.02 -0.0312,-0.0313 -0.58579,-0.58579 -0.66683,-1.45817 -0.18063,-1.94437 0.48619,-0.4862 1.32999,-0.40783 1.91577,0.17797 0.0105,0.0105 0.0211,0.0206 0.0312,0.0313 0.84001,-1.25934 1.26632,-2.84639 1.10047,-4.63172 -0.4225,-4.54807 -4.45194,-8.57749 -9,-9 z"
         id="path3163"
         inkscape:connector-curvature="0" />
      <rect
         y="452.09698"
         x="114.09816"
         height="20"
         width="20"
         id="rect3167"
         style="fill:#000000;fill-opacity:1;stroke:#000000;stroke-width:1;stroke-miterlimit:4;stroke-opacity:1;stroke-dasharray:none" />
      <path
         inkscape:connector-curvature="0"
         id="path3169"
         d="m 122.5626,454.62139 c -1.60772,-0.3293 -2.97697,-0.0957 -4.01876,0.51875 0.0104,0.0101 0.021,0.021 0.0312,0.0313 0.58579,0.58579 0.74787,1.37713 0.36125,1.76375 -0.38662,0.38662 -1.17796,0.22454 -1.76375,-0.36125 -0.0195,-0.0194 -0.0438,-0.0429 -0.0625,-0.0625 -0.61991,1.04311 -0.81803,2.4362 -0.48749,4.04999 0.84499,4.12557 4.87442,8.15501 8.99999,9 1.61381,0.33054 3.00688,0.13242 4.05,-0.48749 -0.0113,-0.0109 -0.02,-0.02 -0.0312,-0.0313 -0.58579,-0.58579 -0.74787,-1.37712 -0.36125,-1.76375 0.38661,-0.38661 1.15203,-0.22984 1.73781,0.35594 0.0104,0.0105 0.021,0.0207 0.0312,0.0313 0.62501,-1.04434 0.84513,-2.42521 0.51343,-4.04468 -0.84499,-4.12558 -4.87443,-8.15501 -9,-9 z"
         style="fill:#ffff00;fill-opacity:1;stroke:none" />
      <rect
         style="fill:#000000;fill-opacity:1;stroke:#000000;stroke-width:1;stroke-miterlimit:4;stroke-opacity:1;stroke-dasharray:none"
         id="rect3173"
         width="20"
         height="20"
         x="135.09816"
         y="452.09698" />
      <path
         style="fill:#ffff00;fill-opacity:1;stroke:none"
         d="m 142.84259,455.3414 c -1.45275,-0.48426 -2.62773,-0.44496 -3.46875,-0.0313 0.0104,0.0101 0.021,0.021 0.0312,0.0313 0.58578,0.58579 0.82414,1.30085 0.53125,1.59376 -0.2929,0.29288 -1.00796,0.0545 -1.59375,-0.53126 -0.0195,-0.0194 -0.0437,-0.043 -0.0625,-0.0625 -0.41834,0.84154 -0.42359,2.04175 0.0625,3.5 1.24265,3.72793 5.27209,7.75736 9.00001,9 1.45825,0.48608 2.65846,0.48083 3.49999,0.0625 -0.0113,-0.0109 -0.02,-0.02 -0.0312,-0.0313 -0.58578,-0.58579 -0.82414,-1.30086 -0.53125,-1.59375 0.29289,-0.29289 0.98454,-0.0624 1.57032,0.52344 0.0105,0.0105 0.021,0.0207 0.0313,0.0313 0.42266,-0.84199 0.44872,-2.0288 -0.0391,-3.49218 -1.24264,-3.72793 -5.27208,-7.75736 -9.00001,-9 z"
         id="path3175"
         inkscape:connector-curvature="0" />
      <rect
         y="452.09698"
         x="156.09816"
         height="20"
         width="20"
         id="rect3179"
         style="fill:#000000;fill-opacity:1;stroke:#000000;stroke-width:1;stroke-miterlimit:4;stroke-opacity:1;stroke-dasharray:none" />
      <path
         inkscape:connector-curvature="0"
         id="path3181"
         d="m 163.07759,456.1064 c -1.28811,-0.6489 -2.25665,-0.81604 -2.88437,-0.61563 0.0103,0.0102 0.021,0.021 0.0312,0.0313 0.58578,0.58578 0.90518,1.21981 0.71188,1.41312 -0.19331,0.19331 -0.82735,-0.12609 -1.41313,-0.71187 -0.0195,-0.0194 -0.0436,-0.0431 -0.0625,-0.0625 -0.20415,0.62736 -0.004,1.62263 0.64688,2.91563 1.66514,3.30542 5.69458,7.33485 9,9 1.29298,0.65134 2.28826,0.85102 2.91562,0.64686 -0.0112,-0.011 -0.02,-0.02 -0.0312,-0.0313 -0.58579,-0.58579 -0.9052,-1.21982 -0.71189,-1.41313 0.19331,-0.19331 0.80656,0.11562 1.39235,0.70141 0.0105,0.0105 0.0209,0.0208 0.0313,0.0313 0.20767,-0.62701 0.0275,-1.60763 -0.6261,-2.90516 -1.66514,-3.30543 -5.69458,-7.33486 -8.99999,-8.99999 z"
         style="fill:#ffff00;fill-opacity:1;stroke:none" />
      <rect
         style="fill:#000000;fill-opacity:1;stroke:#000000;stroke-width:1;stroke-miterlimit:4;stroke-opacity:1;stroke-dasharray:none"
         id="rect3185"
         width="20"
         height="20"
         x="177.09816"
         y="452.09698" />
      <path
         style="fill:#ffff00;fill-opacity:1;stroke:none"
         d="m 182.68252,457.50146 c -0.98788,-0.94913 -1.57997,-1.49272 -1.81873,-1.68127 0.0103,0.0102 0.021,0.021 0.0313,0.0313 0.58578,0.58578 1.05295,1.07204 1.04128,1.08371 -0.0117,0.0117 -0.498,-0.45543 -1.08378,-1.04121 -0.0195,-0.0195 -0.0434,-0.0433 -0.0625,-0.0625 0.18643,0.23677 0.7598,0.85836 1.71252,1.84997 2.43558,2.535 6.46501,6.56444 9,9.00001 0.99161,0.95272 1.6132,1.52608 1.84998,1.71251 -0.0111,-0.0111 -0.02,-0.02 -0.0313,-0.0313 -0.58579,-0.58579 -1.05296,-1.07205 -1.04122,-1.08379 0.0117,-0.0117 0.48202,0.44016 1.06781,1.02595 0.0105,0.0105 0.0209,0.0208 0.0313,0.0313 -0.18435,-0.23498 -0.74047,-0.83961 -1.69654,-1.83471 -2.43558,-2.535 -6.46501,-6.56443 -9,-9 z"
         id="path3187"
         inkscape:connector-curvature="0" />
      <rect
         y="452.09698"
         x="198.09816"
         height="20"
         width="20"
         id="rect3191"
         style="fill:#000000;fill-opacity:1;stroke:#000000;stroke-width:1;stroke-miterlimit:4;stroke-opacity:1;stroke-dasharray:none" />
      <rect
         style="fill:#000000;fill-opacity:1;stroke:#000000;stroke-width:1;stroke-miterlimit:4;stroke-opacity:1;stroke-dasharray:none"
         id="rect3197"
         width="20"
         height="20"
         x="219.09816"
         y="452.09698" />
      <path
         style="fill:#1a1a1a;fill-opacity:1;stroke:none"
         d="m 226.07758,456.1064 c -1.28811,-0.6489 -2.25665,-0.81603 -2.88437,-0.61563 0.0103,0.0102 0.021,0.021 0.0312,0.0313 0.58579,0.58578 0.90518,1.21981 0.71188,1.41312 -0.19331,0.19331 -0.82734,-0.12608 -1.41313,-0.71187 -0.0195,-0.0194 -0.0436,-0.0431 -0.0625,-0.0625 -0.20415,0.62736 -0.004,1.62263 0.64688,2.91563 1.66514,3.30542 5.69458,7.33485 9,9 1.29299,0.65135 2.28827,0.85103 2.91562,0.64687 -0.0112,-0.011 -0.02,-0.02 -0.0312,-0.0313 -0.58578,-0.58579 -0.90518,-1.21981 -0.71188,-1.41312 0.19331,-0.1933 0.80656,0.11562 1.39235,0.70141 0.0105,0.0105 0.0209,0.0208 0.0312,0.0313 0.20768,-0.62701 0.0275,-1.60762 -0.62609,-2.90516 -1.66514,-3.30543 -5.69458,-7.33485 -9,-9 z"
         id="path3199"
         inkscape:connector-curvature="0" />
      <rect
         y="452.09698"
         x="240.09816"
         height="20"
         width="20"
         id="rect3203"
         style="fill:#000000;fill-opacity:1;stroke:#000000;stroke-width:1;stroke-miterlimit:4;stroke-opacity:1;stroke-dasharray:none" />
      <path
         inkscape:connector-curvature="0"
         id="path3205"
         d="m 247.84259,455.3414 c -1.45275,-0.48426 -2.62772,-0.44497 -3.46876,-0.0313 0.0104,0.0101 0.021,0.021 0.0312,0.0313 0.58579,0.58579 0.82414,1.30086 0.53125,1.59375 -0.29289,0.29289 -1.00796,0.0545 -1.59375,-0.53125 -0.0195,-0.0194 -0.0437,-0.043 -0.0625,-0.0625 -0.41834,0.84155 -0.42358,2.04175 0.0625,3.5 1.24265,3.72793 5.27208,7.75737 9,9 1.45826,0.48609 2.65846,0.48084 3.5,0.0625 -0.0113,-0.0109 -0.02,-0.02 -0.0312,-0.0313 -0.58579,-0.58579 -0.82414,-1.30086 -0.53125,-1.59375 0.29289,-0.29289 0.98453,-0.0623 1.57031,0.52344 0.0105,0.0105 0.021,0.0207 0.0313,0.0313 0.42267,-0.84199 0.44873,-2.0288 -0.0391,-3.49218 -1.24263,-3.72793 -5.27207,-7.75736 -9,-9 z"
         style="fill:#1a1a1a;fill-opacity:1;stroke:none" />
      <rect
         style="fill:#000000;fill-opacity:1;stroke:#000000;stroke-width:1;stroke-miterlimit:4;stroke-opacity:1;stroke-dasharray:none"
         id="rect3209"
         width="20"
         height="20"
         x="261.09818"
         y="452.09698" />
      <path
         style="fill:#1a1a1a;fill-opacity:1;stroke:none"
         d="m 269.5626,454.62139 c -1.60772,-0.3293 -2.97697,-0.0957 -4.01875,0.51875 0.0104,0.0101 0.021,0.021 0.0312,0.0313 0.58578,0.58578 0.74786,1.37713 0.36124,1.76375 -0.38661,0.38662 -1.17797,0.22453 -1.76375,-0.36125 -0.0195,-0.0194 -0.0438,-0.0429 -0.0625,-0.0625 -0.61991,1.04311 -0.81803,2.43619 -0.48749,4.04999 0.84499,4.12557 4.87443,8.15501 9,9 1.61379,0.33054 3.00687,0.13241 4.04999,-0.4875 -0.0113,-0.0109 -0.02,-0.02 -0.0312,-0.0313 -0.58579,-0.58578 -0.74788,-1.37713 -0.36126,-1.76375 0.38661,-0.38661 1.15203,-0.22985 1.73782,0.35594 0.0104,0.0105 0.021,0.0207 0.0312,0.0313 0.62501,-1.04434 0.84512,-2.42522 0.51343,-4.04468 -0.845,-4.12559 -4.87444,-8.15501 -9,-9 z"
         id="path3211"
         inkscape:connector-curvature="0" />
      <rect
         y="452.09698"
         x="282.09818"
         height="20"
         width="20"
         id="rect3215"
         style="fill:#000000;fill-opacity:1;stroke:#000000;stroke-width:1;stroke-miterlimit:4;stroke-opacity:1;stroke-dasharray:none" />
      <path
         inkscape:connector-curvature="0"
         id="path3217"
         d="m 291.3276,453.85638 c -1.77237,-0.16464 -3.34803,0.27536 -4.60313,1.10313 0.0104,0.0101 0.021,0.021 0.0312,0.0313 0.58578,0.58579 0.66683,1.45817 0.18062,1.94438 -0.4862,0.4862 -1.35859,0.40517 -1.94437,-0.18062 -0.0195,-0.0194 -0.0439,-0.0428 -0.0625,-0.0625 -0.83409,1.25729 -1.23714,2.8553 -1.07188,4.63438 0.42251,4.54806 4.45194,8.57749 9,8.99999 1.77907,0.16526 3.37708,-0.23779 4.63438,-1.07187 -0.0114,-0.0108 -0.02,-0.02 -0.0312,-0.0313 -0.58579,-0.58579 -0.66683,-1.45817 -0.18063,-1.94437 0.4862,-0.4862 1.33,-0.40783 1.91578,0.17797 0.0104,0.0105 0.0211,0.0206 0.0312,0.0313 0.84002,-1.25934 1.26632,-2.8464 1.10047,-4.63172 -0.42249,-4.54807 -4.45193,-8.57749 -8.99999,-9 z"
         style="fill:#1a1a1a;fill-opacity:1;stroke:none" />
      <rect
         style="fill:#000000;fill-opacity:1;stroke:#000000;stroke-width:1;stroke-miterlimit:4;stroke-opacity:1;stroke-dasharray:none"
         id="rect3221"
         width="20"
         height="20"
         x="303.09818"
         y="452.09698" />
      <path
         style="fill:#1a1a1a;fill-opacity:1;stroke:none"
         d="m 313.09803,453.08595 c -1.93701,0 -3.7191,0.64642 -5.1875,1.6875 0.0105,0.01 0.021,0.021 0.0312,0.0313 0.58579,0.58579 0.58579,1.53921 0,2.125 -0.58578,0.58578 -1.53921,0.58579 -2.125,0 -0.0195,-0.0194 -0.044,-0.0426 -0.0625,-0.0625 -1.04827,1.47148 -1.65625,3.27441 -1.65625,5.21875 0,4.97057 4.02944,9 9,9 1.94435,0 3.74728,-0.60798 5.21875,-1.65625 -0.0114,-0.0108 -0.02,-0.02 -0.0312,-0.0313 -0.58579,-0.58579 -0.58579,-1.53921 0,-2.125 0.58578,-0.58578 1.50796,-0.58579 2.09374,0 0.0104,0.0105 0.0211,0.0206 0.0312,0.0313 1.05501,-1.47433 1.68751,-3.26758 1.6875,-5.21875 10e-6,-4.97057 -4.02943,-9 -9,-9 z"
         id="path3223"
         inkscape:connector-curvature="0" />
      <path
         inkscape:connector-curvature="0"
         id="path3329"
         d="m 203.68811,457.50705 c -0.98788,-0.94912 -1.57997,-1.49271 -1.81873,-1.68126 0.0103,0.0102 0.021,0.021 0.0313,0.0313 0.58578,0.58578 1.05295,1.07205 1.04128,1.08371 -0.0117,0.0117 -0.498,-0.45543 -1.08378,-1.04121 -0.0194,-0.0195 -0.0434,-0.0433 -0.0625,-0.0625 0.18643,0.23678 0.75979,0.85836 1.71252,1.84998 2.43558,2.53499 6.46501,6.56443 9,9 0.99161,0.95272 1.6132,1.52609 1.84998,1.71251 -0.0111,-0.0111 -0.02,-0.02 -0.0313,-0.0313 -0.58579,-0.58579 -1.05296,-1.07205 -1.04122,-1.08379 0.0117,-0.0117 0.48202,0.44016 1.06781,1.02595 0.0105,0.0105 0.0209,0.0208 0.0313,0.0313 -0.18435,-0.23498 -0.74047,-0.83961 -1.69654,-1.83471 -2.43558,-2.53499 -6.46501,-6.56443 -9,-9 z"
         style="fill:#1a1a1a;fill-opacity:1;stroke:none" />
    </g>
  </g>
</svg>
